name Walk5.mot
datacolumns 19
datarows 10
range 3.30500000 3.35000000
endheader

                time	   L_ground_force_vx	   L_ground_force_vy	   L_ground_force_vz	   L_ground_force_px	   L_ground_force_py	   L_ground_force_pz	   R_ground_force_vx	   R_ground_force_vy	   R_ground_force_vz	   R_ground_force_px	   R_ground_force_py	   R_ground_force_pz	   L_ground_torque_x	   L_ground_torque_y	   L_ground_torque_z	   R_ground_torque_x	   R_ground_torque_y	   R_ground_torque_z	
          3.30500000	          0.11565820	          0.27869594	          0.00198254	          0.00063058	          0.00000000	          0.00024229	          1.64169783	        890.61593922	        -66.90635798	          0.12663852	          0.00000000	          0.13113465	          0.00000000	         -0.00111765	          0.00000000	          0.00000000	         15.80951286	          0.00000000	
          3.31000000	          0.10262708	          0.27484107	          0.00569096	          0.00020618	          0.00000000	          0.00010161	          3.33529005	        890.96193684	        -65.78393610	          0.12713986	          0.00000000	          0.13130646	          0.00000000	         -0.00063449	          0.00000000	          0.00000000	         15.53534562	          0.00000000	
          3.31500000	          0.08615392	          0.25063240	          0.00761901	         -0.00008229	          0.00000000	          0.00000336	          4.97168727	        891.62036275	        -64.62616879	          0.12764172	          0.00000000	          0.13146120	          0.00000000	         -0.00027447	          0.00000000	          0.00000000	         15.26108157	          0.00000000	
          3.32000000	          0.06877626	          0.21528586	          0.00825286	         -0.00026076	          0.00000000	         -0.00005991	          6.57834824	        892.64411382	        -63.51187167	          0.12814268	          0.00000000	          0.13160232	          0.00000000	         -0.00002189	          0.00000000	          0.00000000	         14.98931357	          0.00000000	
          3.32500000	          0.05219294	          0.17559230	          0.00800664	         -0.00035460	          0.00000000	         -0.00009575	          8.18621442	        894.06335086	        -62.51394443	          0.12864058	          0.00000000	          0.13173296	          0.00000000	          0.00014182	          0.00000000	          0.00000000	         14.72172930	          0.00000000	
          3.33000000	          0.03743054	          0.13625036	          0.00721551	         -0.00038672	          0.00000000	         -0.00011116	          9.82611326	        895.88680709	        -61.69401243	          0.12913391	          0.00000000	          0.13185546	          0.00000000	          0.00023558	          0.00000000	          0.00000000	         14.45897601	          0.00000000	
          3.33500000	          0.02500340	          0.10024538	          0.00613751	         -0.00037674	          0.00000000	         -0.00011225	         11.52524457	        898.10356504	        -61.09807642	          0.12962295	          0.00000000	          0.13197182	          0.00000000	          0.00027708	          0.00000000	          0.00000000	         14.20060168	          0.00000000	
          3.34000000	          0.01505665	          0.06922789	          0.00496081	         -0.00034055	          0.00000000	         -0.00010407	         13.30423601	        900.68469952	        -60.75544806	          0.13010848	          0.00000000	          0.13208378	          0.00000000	          0.00028178	          0.00000000	          0.00000000	         13.94582832	          0.00000000	
          3.34500000	          0.00748719	          0.04386188	          0.00381388	         -0.00029040	          0.00000000	         -0.00009059	         15.17519923	        903.58892521	        -60.67878963	          0.13059169	          0.00000000	          0.13219350	          0.00000000	          0.00026251	          0.00000000	          0.00000000	         13.69384160	          0.00000000	
          3.35000000	          0.00204090	          0.02412621	          0.00277674	         -0.00023528	          0.00000000	         -0.00007479	         17.14080835	        906.76427944	        -60.86424431	          0.13107359	          0.00000000	          0.13230342	          0.00000000	          0.00022939	          0.00000000	          0.00000000	         13.44348661	          0.00000000	
